# xmcd CD database file
#
# Track frame offsets:
#	150
#	20454
#	38547
#	61554
#	75997
#	98143
#	118135
#	136653
#	158385
#	176117
#	200995
#	218143
#	240746
#	257677
#
# Disc length: 3717 seconds
#
# Revision: 0
# Processed by: cddbd v1.5.1PL2 Copyright (c) Steve Scherf et al.
# Submitted via: CDex 1.51
#
DISCID=ae0e830e
DTITLE=Various Artist - KJZY Jazz Sampler
DYEAR=1999
DGENRE=Jazz
TTITLE0=Double Tallk, The Fantasy Band
TTITLE1=Paradise, Sade
TTITLE2=Water to Drink, Lee Ritenour
TTITLE3=Cast Your Fate to the Wind, David Benoit
TTITLE4=Sweet Summer Days, Ray Obiedo
TTITLE5=South of Market, Joyce Cooling
TTITLE6=In the City, Michael Bolivar
TTITLE7=Love will Follow, Kuh
TTITLE8=Gravity, Jesse Cook
TTITLE9=NYC Tripin, Soul Ballet
TTITLE10=Fly Away, Paul Graham
TTITLE11=Always There, Avenue Blue
TTITLE12=A Sketch of Spain, Larry Coryell
TTITLE13=Me and Mr. Jones, Zappacosta
EXTD=YEAR: 1999
EXTT0=
EXTT1=
EXTT2=
EXTT3=
EXTT4=
EXTT5=
EXTT6=
EXTT7=
EXTT8=
EXTT9=
EXTT10=
EXTT11=
EXTT12=
EXTT13=
PLAYORDER=
